<svg width="32" height="32" viewBox="0 0 32 32" fill="none" xmlns="http://www.w3.org/2000/svg">
<g clip-path="url(#clip0_7_127)">
<path d="M25.3333 0H6.66669C2.98662 0.0044375 0.0044375 2.98662 0 6.66669V25.3334C0.0044375 29.0134 2.98662 31.9956 6.66669 32H25.3334C29.0134 31.9956 31.9956 29.0134 32 25.3333V6.66669C31.9956 2.98662 29.0134 0.0044375 25.3333 0ZM26.6667 10.772L14.328 23.1107C13.2868 24.1523 11.5984 24.1526 10.5568 23.1114C10.5565 23.1112 10.5562 23.1109 10.556 23.1107L5.33331 17.8894C4.81156 17.3676 4.81156 16.5218 5.33331 16.0001C5.85506 15.4784 6.70094 15.4783 7.22262 16.0001L12.4439 21.2214L24.7839 8.88269C25.3057 8.36281 26.1501 8.36431 26.6699 8.886C27.1899 9.40775 27.1884 10.2521 26.6667 10.772Z" fill="#3752FD"/>
</g>
<defs>
<clipPath id="clip0_7_127">
<rect width="32" height="32" fill="white"/>
</clipPath>
</defs>
</svg>
